<svg xmlns:dc="http://purl.org/dc/elements/1.1/" xmlns:cc="http://creativecommons.org/ns#" xmlns:rdf="http://www.w3.org/1999/02/22-rdf-syntax-ns#" xmlns:svg="http://www.w3.org/2000/svg" xmlns="http://www.w3.org/2000/svg" xmlns:sodipodi="http://sodipodi.sourceforge.net/DTD/sodipodi-0.dtd" xmlns:inkscape="http://www.inkscape.org/namespaces/inkscape" viewBox="0 0 32 40.00000125" version="1.1" x="0px" y="0px"><g transform="translate(0,-1020.3622)"><g transform="translate(-342.16021,880.9582)"><g transform="translate(-0.84842647,-43.458202)"><g transform="translate(-46.734174,-0.58020543)"><path style="color:#000000;clip-rule:nonzero;display:inline;overflow:visible;visibility:visible;opacity:1;isolation:auto;mix-blend-mode:normal;color-interpolation:sRGB;color-interpolation-filters:linearRGB;solid-color:#000000;solid-opacity:1;fill:#000000;fill-opacity:1;fill-rule:nonzero;stroke:none;stroke-width:0.99999994;stroke-linecap:round;stroke-linejoin:round;stroke-miterlimit:4;stroke-dasharray:none;stroke-dashoffset:0;stroke-opacity:1;color-rendering:auto;image-rendering:auto;shape-rendering:auto;text-rendering:auto;enable-background:accumulate" d="m 399.01222,183.94631 a 0.50005,0.50005 0 0 0 -0.39648,0.2461 c -0.27891,0.45531 -0.79556,0.74218 -1.36133,0.74218 a 0.50005,0.50005 0 0 0 -0.008,0 l -2.58008,0 a 0.50005,0.50005 0 0 0 -0.1543,0.0234 c -0.71605,0.11129 -1.27344,0.73149 -1.27344,1.47656 0,0.8225 0.6775,1.5 1.5,1.5 a 0.50005,0.50005 0 0 0 0.0527,-0.002 0.50005,0.50005 0 0 0 0.0527,0.002 l 2.40235,0 a 0.50005,0.50005 0 0 0 0.008,0 0.50005,0.50005 0 0 0 0.041,0 l 3.45117,0 c 0.28207,0 0.5,0.21793 0.5,0.5 0,0.28206 -0.21793,0.5 -0.5,0.5 a 0.50005,0.50005 0 0 0 -0.0215,0 0.50005,0.50005 0 0 0 -0.0156,0 l -2.95312,0 a 0.50005,0.50005 0 0 0 -0.15234,0.0234 c -1.30739,0.10659 -2.36134,1.16008 -2.36133,2.4707 a 0.50005,0.50005 0 0 0 0.50781,0.50782 0.50005,0.50005 0 0 0 0.49219,-0.50782 c -10e-6,-0.80311 0.6624,-1.46049 1.52344,-1.48632 -0.32339,0.41554 -0.52344,0.92481 -0.52344,1.48632 a 0.50005,0.50005 0 0 0 0.50781,0.50782 0.50005,0.50005 0 0 0 0.49219,-0.50782 c -10e-6,-0.81928 0.68782,-1.49218 1.57422,-1.49218 a 0.50005,0.50005 0 0 0 0.0625,-0.002 l 0.83008,0 a 0.50005,0.50005 0 0 0 0.002,0 0.50005,0.50005 0 0 0 0.0664,-0.004 c 0.80798,-0.0173 1.46875,-0.68431 1.46875,-1.4961 0,-0.76509 -0.59014,-1.39684 -1.33399,-1.48242 a 0.50005,0.50005 0 0 0 -0.13086,-0.0176 l -3.52734,0 a 0.50005,0.50005 0 0 0 -0.008,0 l -0.50396,0 c -0.28207,0 -0.5,-0.21794 -0.5,-0.5 0,-0.28207 0.21793,-0.5 0.5,-0.5 l 0.50391,0 a 0.50005,0.50005 0 0 0 0.008,0 0.50005,0.50005 0 0 0 0.11914,-0.0156 c 0.85785,-0.0392 1.64803,-0.47748 2.09375,-1.20508 a 0.50005,0.50005 0 0 0 -0.4043,-0.76758 0.50005,0.50005 0 0 0 -0.0508,0 z m -4.27344,1.98828 0.59571,0 c -0.057,0.15775 -0.0918,0.32369 -0.0918,0.5 0,0.17567 0.0352,0.34276 0.0918,0.5 l -0.49024,0 a 0.50005,0.50005 0 0 0 -0.0508,0.002 0.50005,0.50005 0 0 1 -0.002,0 0.50005,0.50005 0 0 0 -0.0527,-0.002 c -0.28206,0 -0.5,-0.21794 -0.5,-0.5 0,-0.28207 0.21794,-0.5 0.5,-0.5 z m -0.99609,7.50782 c 0,0.9528 -0.0115,1.64915 -0.0156,2.50195 l 12.02929,0 c 0.002,0.3408 0.004,0.6744 0.006,1 l -12.04101,0 c -0.10445,14.6781 -0.85971,14.32245 -1.97856,18.49805 l 16,0 c -1.20578,-4.5 -2,-3.5 -2,-22 l -12,0 z m 14,5 c 0,0.9053 -0.007,1.64495 -0.0117,2.43945 l 9.02539,0 c -0.005,-0.8038 -0.0137,-1.52545 -0.0137,-2.43945 l -9,0 z m -0.0156,3.43945 c -0.0352,3.9645 -0.13715,6.56479 -0.32812,8.37109 0.32619,1.9582 0.7531,2.85854 1.30859,4.93164 a 1.0001,1.0001 0 0 1 0.0332,0.25782 l 10.00195,0 c -1.33124,-2.2613 -1.88582,-3.39245 -1.98047,-13.56055 l -9.03515,0 z m 4.45508,3.56055 a 2.4999992,2.4999992 0 0 1 0.11914,0 2.4999992,2.4999992 0 0 1 1.18946,0.33398 l -0.75977,1.31445 c -0.14751,-0.087 -0.30926,-0.14843 -0.49023,-0.14843 -0.18096,0 -0.34273,0.0619 -0.49024,0.14843 l -0.75976,-1.31445 a 2.4999992,2.4999992 0 0 1 1.1914,-0.33398 z m 0.0606,1.99804 a 0.5,0.5 0 0 1 0.5,0.5 0.5,0.5 0 0 1 -0.5,0.5 0.5,0.5 0 0 1 -0.5,-0.5 0.5,0.5 0 0 1 0.5,-0.5 z m -2.50195,0.5 1.5,0 c 0,0.3654 0.21192,0.67511 0.50976,0.84961 l -0.75976,1.31446 a 2.4999992,2.4999992 0 0 1 -1.25,-2.16407 z m 3.5,0 1.5,0 a 2.4999992,2.4999992 0 0 1 -1.25,2.16602 l -0.75977,-1.31445 c 0.29783,-0.1745 0.50977,-0.48421 0.50977,-0.84961 l 0,-0.002 z"/></g></g></g></g><text x="0" y="47.000001" fill="#000000" font-size="5px" font-weight="bold" font-family="'Helvetica Neue', Helvetica, Arial-Unicode, Arial, Sans-serif">Created by Chameleon Design</text><text x="0" y="52.000001" fill="#000000" font-size="5px" font-weight="bold" font-family="'Helvetica Neue', Helvetica, Arial-Unicode, Arial, Sans-serif">from the Noun Project</text></svg>